<svg width="264" height="263" viewBox="0 0 264 263" fill="none" xmlns="http://www.w3.org/2000/svg">
<mask id="path-1-inside-1_8_110" fill="white">
<path d="M250.033 131.361C257.287 131.361 263.237 137.257 262.513 144.476C260.197 167.551 251.803 189.686 238.081 208.574C221.775 231.017 198.783 247.721 172.4 256.294C146.017 264.866 117.597 264.866 91.2143 256.294C69.0107 249.079 49.2088 236.105 33.773 218.798C28.944 213.384 30.2916 205.117 36.161 200.853C42.0303 196.588 50.1902 197.958 55.153 203.249C67.2294 216.127 82.4091 225.808 99.3329 231.307C120.439 238.165 143.175 238.165 164.282 231.307C185.388 224.449 203.782 211.086 216.826 193.131C227.286 178.735 233.876 161.98 236.077 144.464C236.981 137.266 242.778 131.361 250.033 131.361Z"/>
</mask>
<path d="M250.033 131.361C257.287 131.361 263.237 137.257 262.513 144.476C260.197 167.551 251.803 189.686 238.081 208.574C221.775 231.017 198.783 247.721 172.4 256.294C146.017 264.866 117.597 264.866 91.2143 256.294C69.0107 249.079 49.2088 236.105 33.773 218.798C28.944 213.384 30.2916 205.117 36.161 200.853C42.0303 196.588 50.1902 197.958 55.153 203.249C67.2294 216.127 82.4091 225.808 99.3329 231.307C120.439 238.165 143.175 238.165 164.282 231.307C185.388 224.449 203.782 211.086 216.826 193.131C227.286 178.735 233.876 161.98 236.077 144.464C236.981 137.266 242.778 131.361 250.033 131.361Z" stroke="url(#paint0_linear_8_110)" stroke-width="60" stroke-linejoin="round" mask="url(#path-1-inside-1_8_110)"/>
<path d="M65.514 145.818V138.068L84.9458 107.455H91.6276V118.182H87.6731L75.4231 137.568V137.932H103.037V145.818H65.514ZM87.8549 154V143.455L88.0367 140.023V107.455H97.264V154H87.8549ZM127.844 155.023C123.934 155.008 120.571 154.045 117.753 152.136C114.95 150.227 112.79 147.462 111.275 143.841C109.775 140.22 109.033 135.864 109.048 130.773C109.048 125.697 109.798 121.371 111.298 117.795C112.813 114.22 114.972 111.5 117.775 109.636C120.594 107.758 123.95 106.818 127.844 106.818C131.737 106.818 135.086 107.758 137.889 109.636C140.707 111.515 142.874 114.242 144.389 117.818C145.904 121.379 146.654 125.697 146.639 130.773C146.639 135.879 145.881 140.242 144.366 143.864C142.866 147.485 140.715 150.25 137.912 152.159C135.109 154.068 131.753 155.023 127.844 155.023ZM127.844 146.864C130.51 146.864 132.639 145.523 134.23 142.841C135.821 140.159 136.609 136.136 136.594 130.773C136.594 127.242 136.23 124.303 135.503 121.955C134.79 119.606 133.775 117.841 132.457 116.659C131.154 115.477 129.616 114.886 127.844 114.886C125.192 114.886 123.071 116.212 121.48 118.864C119.889 121.515 119.086 125.485 119.071 130.773C119.071 134.348 119.427 137.333 120.139 139.727C120.866 142.106 121.889 143.894 123.207 145.091C124.525 146.273 126.071 146.864 127.844 146.864ZM179.133 145.273V142.818C179.133 140.955 179.527 139.242 180.315 137.682C181.118 136.106 182.277 134.848 183.792 133.909C185.323 132.955 187.186 132.477 189.383 132.477C191.611 132.477 193.482 132.947 194.997 133.886C196.527 134.826 197.679 136.083 198.451 137.659C199.239 139.22 199.633 140.939 199.633 142.818V145.273C199.633 147.136 199.239 148.856 198.451 150.432C197.664 151.992 196.505 153.242 194.974 154.182C193.444 155.136 191.58 155.614 189.383 155.614C187.156 155.614 185.285 155.136 183.77 154.182C182.255 153.242 181.103 151.992 180.315 150.432C179.527 148.856 179.133 147.136 179.133 145.273ZM185.747 142.818V145.273C185.747 146.348 186.005 147.364 186.52 148.318C187.05 149.273 188.005 149.75 189.383 149.75C190.762 149.75 191.701 149.28 192.201 148.341C192.717 147.402 192.974 146.379 192.974 145.273V142.818C192.974 141.712 192.732 140.682 192.247 139.727C191.762 138.773 190.808 138.295 189.383 138.295C188.02 138.295 187.073 138.773 186.542 139.727C186.012 140.682 185.747 141.712 185.747 142.818ZM155.247 118.636V116.182C155.247 114.303 155.648 112.583 156.451 111.023C157.255 109.447 158.414 108.189 159.929 107.25C161.459 106.311 163.308 105.841 165.474 105.841C167.717 105.841 169.595 106.311 171.111 107.25C172.626 108.189 173.777 109.447 174.565 111.023C175.353 112.583 175.747 114.303 175.747 116.182V118.636C175.747 120.515 175.345 122.235 174.542 123.795C173.755 125.356 172.595 126.606 171.065 127.545C169.55 128.47 167.686 128.932 165.474 128.932C163.262 128.932 161.391 128.462 159.861 127.523C158.345 126.568 157.194 125.318 156.406 123.773C155.633 122.212 155.247 120.5 155.247 118.636ZM161.906 116.182V118.636C161.906 119.742 162.164 120.765 162.679 121.705C163.209 122.644 164.141 123.114 165.474 123.114C166.868 123.114 167.815 122.644 168.315 121.705C168.83 120.765 169.088 119.742 169.088 118.636V116.182C169.088 115.076 168.845 114.045 168.361 113.091C167.876 112.136 166.914 111.659 165.474 111.659C164.126 111.659 163.194 112.144 162.679 113.114C162.164 114.083 161.906 115.106 161.906 116.182ZM158.247 154L190.247 107.455H196.201L164.201 154H158.247Z" fill="white"/>
<defs>
<linearGradient id="paint0_linear_8_110" x1="263.169" y1="0" x2="0.445801" y2="262.723" gradientUnits="userSpaceOnUse">
<stop stop-color="#FF5286"/>
<stop offset="1" stop-color="#E291FF"/>
</linearGradient>
</defs>
</svg>
