<svg width="264" height="263" viewBox="0 0 264 263" fill="none" xmlns="http://www.w3.org/2000/svg">
<mask id="path-1-inside-1_8_89" fill="white">
<path d="M250.31 131.361C257.565 131.361 263.514 137.258 262.79 144.477C260.057 171.712 248.866 197.537 230.62 218.232C209.466 242.227 180.284 257.678 148.548 261.687C116.813 265.696 84.7048 257.988 58.2483 240.008C31.7918 222.028 12.8049 195.013 4.84986 164.03C-3.10518 133.047 0.518277 100.226 15.0404 71.7246C29.5626 43.2233 53.9855 21.0002 83.727 9.22466C113.468 -2.55084 146.485 -3.0695 176.581 7.76599C202.541 17.1119 224.789 34.3507 240.304 56.9008C244.416 62.8777 242.043 70.9109 235.686 74.406C229.328 77.901 221.404 75.5195 217.144 69.6473C204.819 52.659 187.618 39.6625 167.682 32.4851C143.605 23.8167 117.192 24.2316 93.3984 33.652C69.6052 43.0724 50.0669 60.8509 38.4492 83.652C26.8315 106.453 23.9327 132.71 30.2968 157.496C36.6608 182.282 51.8503 203.895 73.0155 218.279C94.1807 232.663 119.867 238.829 145.256 235.622C170.644 232.415 193.99 220.054 210.913 200.858C224.925 184.964 233.737 165.289 236.354 144.464C237.258 137.266 243.055 131.361 250.31 131.361Z"/>
</mask>
<path d="M250.31 131.361C257.565 131.361 263.514 137.258 262.79 144.477C260.057 171.712 248.866 197.537 230.62 218.232C209.466 242.227 180.284 257.678 148.548 261.687C116.813 265.696 84.7048 257.988 58.2483 240.008C31.7918 222.028 12.8049 195.013 4.84986 164.03C-3.10518 133.047 0.518277 100.226 15.0404 71.7246C29.5626 43.2233 53.9855 21.0002 83.727 9.22466C113.468 -2.55084 146.485 -3.0695 176.581 7.76599C202.541 17.1119 224.789 34.3507 240.304 56.9008C244.416 62.8777 242.043 70.9109 235.686 74.406C229.328 77.901 221.404 75.5195 217.144 69.6473C204.819 52.659 187.618 39.6625 167.682 32.4851C143.605 23.8167 117.192 24.2316 93.3984 33.652C69.6052 43.0724 50.0669 60.8509 38.4492 83.652C26.8315 106.453 23.9327 132.71 30.2968 157.496C36.6608 182.282 51.8503 203.895 73.0155 218.279C94.1807 232.663 119.867 238.829 145.256 235.622C170.644 232.415 193.99 220.054 210.913 200.858C224.925 184.964 233.737 165.289 236.354 144.464C237.258 137.266 243.055 131.361 250.31 131.361Z" stroke="url(#paint0_linear_8_89)" stroke-width="60" stroke-linejoin="round" mask="url(#path-1-inside-1_8_89)"/>
<path d="M83.3365 106.818C85.7305 106.818 88.0335 107.22 90.2456 108.023C92.4729 108.826 94.4577 110.106 96.2002 111.864C97.9577 113.621 99.3441 115.955 100.359 118.864C101.39 121.758 101.912 125.311 101.927 129.523C101.927 133.477 101.48 137.008 100.587 140.114C99.7077 143.205 98.4426 145.833 96.7911 148C95.1396 150.167 93.1471 151.818 90.8138 152.955C88.4805 154.076 85.8744 154.636 82.9956 154.636C79.8896 154.636 77.1471 154.038 74.7684 152.841C72.3896 151.629 70.4729 149.985 69.0184 147.909C67.579 145.818 66.7077 143.47 66.4047 140.864H76.1093C76.4881 142.561 77.2835 143.879 78.4956 144.818C79.7077 145.742 81.2077 146.205 82.9956 146.205C86.0259 146.205 88.329 144.886 89.9047 142.25C91.4805 139.598 92.2759 135.97 92.2911 131.364H91.9729C91.2759 132.727 90.3365 133.902 89.1547 134.886C87.9729 135.856 86.6168 136.606 85.0865 137.136C83.5714 137.667 81.9577 137.932 80.2456 137.932C77.5032 137.932 75.0562 137.288 72.9047 136C70.7532 134.712 69.0562 132.939 67.8138 130.682C66.5714 128.424 65.9502 125.848 65.9502 122.955C65.935 119.833 66.6547 117.053 68.1093 114.614C69.5638 112.174 71.5941 110.265 74.2002 108.886C76.8214 107.492 79.8668 106.803 83.3365 106.818ZM83.4047 114.545C81.8744 114.545 80.5108 114.909 79.3138 115.636C78.132 116.364 77.1926 117.341 76.4956 118.568C75.8138 119.795 75.4805 121.167 75.4956 122.682C75.4956 124.212 75.829 125.591 76.4956 126.818C77.1774 128.03 78.1017 129 79.2684 129.727C80.4502 130.439 81.7987 130.795 83.3138 130.795C84.4502 130.795 85.5032 130.583 86.4729 130.159C87.4426 129.735 88.2835 129.152 88.9956 128.409C89.7229 127.652 90.2911 126.78 90.7002 125.795C91.1093 124.811 91.3138 123.765 91.3138 122.659C91.2987 121.189 90.9502 119.841 90.2684 118.614C89.5865 117.386 88.6471 116.402 87.4502 115.659C86.2532 114.917 84.9047 114.545 83.4047 114.545ZM108.746 154V146.909L125.314 131.568C126.723 130.205 127.905 128.977 128.859 127.886C129.829 126.795 130.564 125.727 131.064 124.682C131.564 123.621 131.814 122.477 131.814 121.25C131.814 119.886 131.503 118.712 130.882 117.727C130.261 116.727 129.412 115.962 128.337 115.432C127.261 114.886 126.041 114.614 124.677 114.614C123.253 114.614 122.011 114.902 120.95 115.477C119.89 116.053 119.071 116.879 118.496 117.955C117.92 119.03 117.632 120.311 117.632 121.795H108.291C108.291 118.75 108.98 116.106 110.359 113.864C111.738 111.621 113.67 109.886 116.155 108.659C118.64 107.432 121.503 106.818 124.746 106.818C128.079 106.818 130.98 107.409 133.45 108.591C135.935 109.758 137.867 111.379 139.246 113.455C140.624 115.53 141.314 117.909 141.314 120.591C141.314 122.348 140.965 124.083 140.268 125.795C139.587 127.508 138.367 129.409 136.609 131.5C134.852 133.576 132.374 136.068 129.177 138.977L122.382 145.636V145.955H141.927V154H108.746ZM174.535 145.273V142.818C174.535 140.955 174.929 139.242 175.717 137.682C176.52 136.106 177.679 134.848 179.194 133.909C180.725 132.955 182.588 132.477 184.785 132.477C187.013 132.477 188.884 132.947 190.399 133.886C191.929 134.826 193.081 136.083 193.854 137.659C194.641 139.22 195.035 140.939 195.035 142.818V145.273C195.035 147.136 194.641 148.856 193.854 150.432C193.066 151.992 191.907 153.242 190.376 154.182C188.846 155.136 186.982 155.614 184.785 155.614C182.558 155.614 180.687 155.136 179.172 154.182C177.657 153.242 176.505 151.992 175.717 150.432C174.929 148.856 174.535 147.136 174.535 145.273ZM181.149 142.818V145.273C181.149 146.348 181.407 147.364 181.922 148.318C182.452 149.273 183.407 149.75 184.785 149.75C186.164 149.75 187.104 149.28 187.604 148.341C188.119 147.402 188.376 146.379 188.376 145.273V142.818C188.376 141.712 188.134 140.682 187.649 139.727C187.164 138.773 186.21 138.295 184.785 138.295C183.422 138.295 182.475 138.773 181.944 139.727C181.414 140.682 181.149 141.712 181.149 142.818ZM150.649 118.636V116.182C150.649 114.303 151.051 112.583 151.854 111.023C152.657 109.447 153.816 108.189 155.331 107.25C156.861 106.311 158.71 105.841 160.876 105.841C163.119 105.841 164.998 106.311 166.513 107.25C168.028 108.189 169.179 109.447 169.967 111.023C170.755 112.583 171.149 114.303 171.149 116.182V118.636C171.149 120.515 170.748 122.235 169.944 123.795C169.157 125.356 167.998 126.606 166.467 127.545C164.952 128.47 163.088 128.932 160.876 128.932C158.664 128.932 156.793 128.462 155.263 127.523C153.748 126.568 152.596 125.318 151.808 123.773C151.035 122.212 150.649 120.5 150.649 118.636ZM157.308 116.182V118.636C157.308 119.742 157.566 120.765 158.081 121.705C158.611 122.644 159.543 123.114 160.876 123.114C162.27 123.114 163.217 122.644 163.717 121.705C164.232 120.765 164.49 119.742 164.49 118.636V116.182C164.49 115.076 164.248 114.045 163.763 113.091C163.278 112.136 162.316 111.659 160.876 111.659C159.528 111.659 158.596 112.144 158.081 113.114C157.566 114.083 157.308 115.106 157.308 116.182ZM153.649 154L185.649 107.455H191.604L159.604 154H153.649Z" fill="white"/>
<defs>
<linearGradient id="paint0_linear_8_89" x1="263.446" y1="0" x2="0.7229" y2="262.723" gradientUnits="userSpaceOnUse">
<stop stop-color="#FF5286"/>
<stop offset="1" stop-color="#E291FF"/>
</linearGradient>
</defs>
</svg>
