<svg width="67" height="67" viewBox="0 0 67 67" fill="none" xmlns="http://www.w3.org/2000/svg">
<path d="M38.4413 51.9466C46.7049 41.9733 51.7306 23.158 53.6846 10.6051C19.8405 8.25844 8.51725 19.5726 7.08612 25.523C6.5866 27.3975 6.96045 32.2537 12.4519 36.682M38.4413 51.9466C32.9412 58.5847 26.0066 61.3058 17.5886 55.6561L38.4413 51.9466ZM38.4413 51.9466C26.5878 51.8768 4.795 48.726 12.4519 36.682M38.4413 51.9466C43.5924 52.3926 54.8343 51.4965 58.5934 44.344C62.3524 37.1916 58.8308 28.964 56.6 25.7443C54.1391 31.5747 48.4969 42.7656 45.6159 40.886M12.4519 36.682C16.2878 39.0941 25.6377 43.5313 32.3508 41.9844C39.0639 40.4374 39.2406 29.458 38.4898 24.1616L33.176 26.7168M12.4519 36.682L27.8621 29.272M27.8621 29.272C24.6953 28.4061 18.7827 26.1379 20.4664 23.992C22.1501 21.8462 25.6474 23.6738 27.1857 24.8559C27.0216 21.4146 36.3656 17.6705 33.176 26.2472C33.1994 26.7388 34.3687 25.0226 33.176 26.7168M27.8621 29.272L33.176 26.7168" stroke="url(#paint0_linear_8_4408)" stroke-width="5" stroke-linejoin="round"/>
<path d="M38.4413 51.9466C46.7049 41.9733 51.7306 23.158 53.6846 10.6051C19.8405 8.25844 8.51725 19.5726 7.08612 25.523C6.5866 27.3975 6.96045 32.2537 12.4519 36.682M38.4413 51.9466C32.9412 58.5847 26.0066 61.3058 17.5886 55.6561L38.4413 51.9466ZM38.4413 51.9466C26.5878 51.8768 4.795 48.726 12.4519 36.682M38.4413 51.9466C43.5924 52.3926 54.8343 51.4965 58.5934 44.344C62.3524 37.1916 58.8308 28.964 56.6 25.7443C54.1391 31.5747 48.4969 42.7656 45.6159 40.886M12.4519 36.682C16.2878 39.0941 25.6377 43.5313 32.3508 41.9844C39.0639 40.4374 39.2406 29.458 38.4898 24.1616L33.176 26.7168M12.4519 36.682L27.8621 29.272M27.8621 29.272C24.6953 28.4061 18.7827 26.1379 20.4664 23.992C22.1501 21.8462 25.6474 23.6738 27.1857 24.8559C27.0216 21.4146 36.3656 17.6705 33.176 26.2472C33.1994 26.7388 33.176 26.2472 33.176 26.7168M27.8621 29.272L33.176 26.7168" stroke="url(#paint1_linear_8_4408)" stroke-linejoin="round"/>
<defs>
<linearGradient id="paint0_linear_8_4408" x1="40.4425" y1="7.0766" x2="26.5575" y2="59.1849" gradientUnits="userSpaceOnUse">
<stop stop-color="#FF5286"/>
<stop offset="1" stop-color="#E291FF"/>
</linearGradient>
<linearGradient id="paint1_linear_8_4408" x1="40.4425" y1="7.0766" x2="26.5575" y2="59.1849" gradientUnits="userSpaceOnUse">
<stop stop-color="white"/>
<stop offset="1" stop-color="white"/>
</linearGradient>
</defs>
</svg>
