<svg width="278" height="67" viewBox="0 0 278 67" fill="none" xmlns="http://www.w3.org/2000/svg">
<path d="M38.4413 51.9466C46.7049 41.9733 51.7306 23.158 53.6846 10.6051C19.8405 8.25844 8.51725 19.5726 7.08612 25.523C6.5866 27.3975 6.96045 32.2537 12.4519 36.682M38.4413 51.9466C32.9412 58.5847 26.0066 61.3058 17.5886 55.6561L38.4413 51.9466ZM38.4413 51.9466C26.5878 51.8768 4.795 48.726 12.4519 36.682M38.4413 51.9466C43.5924 52.3926 54.8343 51.4965 58.5934 44.344C62.3524 37.1916 58.8308 28.964 56.6 25.7443C54.1391 31.5747 48.4969 42.7656 45.6159 40.886M12.4519 36.682C16.2878 39.0941 25.6377 43.5313 32.3508 41.9844C39.0639 40.4374 39.2406 29.458 38.4898 24.1616L33.176 26.7168M12.4519 36.682L27.8621 29.272M27.8621 29.272C24.6953 28.4061 18.7827 26.1379 20.4664 23.992C22.1501 21.8462 25.6474 23.6738 27.1857 24.8559C27.0216 21.4146 36.3656 17.6705 33.176 26.2472C33.1994 26.7388 34.3687 25.0226 33.176 26.7168M27.8621 29.272L33.176 26.7168" stroke="url(#paint0_linear_12_2)" stroke-width="5" stroke-linejoin="round"/>
<path d="M38.4413 51.9466C46.7049 41.9733 51.7306 23.158 53.6846 10.6051C19.8405 8.25844 8.51725 19.5726 7.08612 25.523C6.5866 27.3975 6.96045 32.2537 12.4519 36.682M38.4413 51.9466C32.9412 58.5847 26.0066 61.3058 17.5886 55.6561L38.4413 51.9466ZM38.4413 51.9466C26.5878 51.8768 4.795 48.726 12.4519 36.682M38.4413 51.9466C43.5924 52.3926 54.8343 51.4965 58.5934 44.344C62.3524 37.1916 58.8308 28.964 56.6 25.7443C54.1391 31.5747 48.4969 42.7656 45.6159 40.886M12.4519 36.682C16.2878 39.0941 25.6377 43.5313 32.3508 41.9844C39.0639 40.4374 39.2406 29.458 38.4898 24.1616L33.176 26.7168M12.4519 36.682L27.8621 29.272M27.8621 29.272C24.6953 28.4061 18.7827 26.1379 20.4664 23.992C22.1501 21.8462 25.6474 23.6738 27.1857 24.8559C27.0216 21.4146 36.3656 17.6705 33.176 26.2472C33.1994 26.7388 33.176 26.2472 33.176 26.7168M27.8621 29.272L33.176 26.7168" stroke="url(#paint1_linear_12_2)" stroke-linejoin="round"/>
<path d="M92.9815 46V19.8182H111.237V24.9574H99.3097V30.3267H110.304V35.4787H99.3097V40.8608H111.237V46H92.9815ZM120.518 26.3636L123.753 32.8324L127.102 26.3636H133.405L127.92 36.1818L133.609 46H127.358L123.753 39.4801L120.237 46H113.896L119.598 36.1818L114.178 26.3636H120.518ZM141.577 26.3636L144.811 32.8324L148.161 26.3636H154.463L148.979 36.1818L154.668 46H148.417L144.811 39.4801L141.296 46H134.955L140.657 36.1818L135.236 26.3636H141.577ZM174.461 32.3594L168.721 32.5128C168.661 32.1037 168.499 31.7415 168.235 31.4261C167.971 31.1023 167.626 30.8509 167.2 30.6719C166.782 30.4844 166.296 30.3906 165.742 30.3906C165.018 30.3906 164.4 30.5355 163.888 30.8253C163.386 31.1151 163.138 31.5071 163.147 32.0014C163.138 32.3849 163.292 32.7173 163.607 32.9986C163.931 33.2798 164.506 33.5057 165.333 33.6761L169.117 34.392C171.077 34.767 172.535 35.3892 173.489 36.2585C174.452 37.1278 174.938 38.2784 174.947 39.7102C174.938 41.0568 174.538 42.2287 173.745 43.2259C172.961 44.223 171.887 44.9986 170.523 45.5526C169.16 46.098 167.6 46.3707 165.844 46.3707C163.04 46.3707 160.829 45.7955 159.21 44.6449C157.599 43.4858 156.678 41.9347 156.448 39.9915L162.623 39.8381C162.759 40.554 163.113 41.0994 163.684 41.4744C164.255 41.8494 164.984 42.0369 165.87 42.0369C166.671 42.0369 167.323 41.8878 167.826 41.5895C168.329 41.2912 168.585 40.8949 168.593 40.4006C168.585 39.9574 168.388 39.6037 168.005 39.3395C167.621 39.0668 167.021 38.8537 166.202 38.7003L162.776 38.0483C160.808 37.6903 159.342 37.0298 158.379 36.0668C157.415 35.0952 156.938 33.8594 156.947 32.3594C156.938 31.0469 157.288 29.9261 157.995 28.9972C158.702 28.0597 159.708 27.3438 161.012 26.8494C162.316 26.3551 163.854 26.108 165.627 26.108C168.286 26.108 170.383 26.6662 171.917 27.7827C173.451 28.8906 174.299 30.4162 174.461 32.3594ZM189.108 26.3636V30.9659H176.721V26.3636H189.108ZM179.316 21.6591H185.567V39.8253C185.567 40.2088 185.627 40.5199 185.746 40.7585C185.874 40.9886 186.057 41.1548 186.296 41.2571C186.534 41.3509 186.82 41.3977 187.152 41.3977C187.391 41.3977 187.642 41.3764 187.907 41.3338C188.179 41.2827 188.384 41.2401 188.52 41.206L189.466 45.7188C189.168 45.804 188.746 45.9105 188.201 46.0384C187.664 46.1662 187.02 46.2472 186.27 46.2812C184.804 46.3494 183.547 46.179 182.499 45.7699C181.459 45.3523 180.662 44.7045 180.108 43.8267C179.563 42.9489 179.299 41.8452 179.316 40.5156V21.6591ZM201.266 46.3707C199.212 46.3707 197.439 45.9659 195.948 45.1562C194.465 44.3381 193.323 43.1747 192.522 41.6662C191.729 40.1491 191.333 38.3466 191.333 36.2585C191.333 34.2301 191.733 32.4574 192.534 30.9403C193.336 29.4148 194.465 28.2301 195.922 27.3864C197.38 26.5341 199.097 26.108 201.074 26.108C202.472 26.108 203.75 26.3253 204.909 26.7599C206.069 27.1946 207.07 27.8381 207.914 28.6903C208.757 29.5426 209.414 30.5952 209.882 31.848C210.351 33.0923 210.586 34.5199 210.586 36.1307V37.6903H193.519V34.0597H204.769C204.76 33.3949 204.603 32.8026 204.296 32.2827C203.989 31.7628 203.567 31.358 203.03 31.0682C202.502 30.7699 201.892 30.6207 201.202 30.6207C200.503 30.6207 199.877 30.7784 199.323 31.0938C198.769 31.4006 198.33 31.8224 198.006 32.3594C197.682 32.8878 197.512 33.4886 197.495 34.1619V37.8565C197.495 38.6577 197.652 39.3608 197.968 39.9659C198.283 40.5625 198.73 41.027 199.31 41.3594C199.89 41.6918 200.58 41.858 201.381 41.858C201.935 41.858 202.438 41.7812 202.89 41.6278C203.341 41.4744 203.729 41.2486 204.053 40.9503C204.377 40.652 204.62 40.2855 204.782 39.8509L210.522 40.017C210.283 41.304 209.759 42.4247 208.949 43.3793C208.148 44.3253 207.096 45.0625 205.792 45.5909C204.488 46.1108 202.979 46.3707 201.266 46.3707ZM220.03 34.8011V46H213.778V26.3636H219.723V29.9688H219.94C220.375 28.767 221.116 27.8253 222.165 27.1435C223.213 26.4531 224.462 26.108 225.911 26.108C227.291 26.108 228.489 26.419 229.503 27.0412C230.526 27.6548 231.318 28.5156 231.881 29.6236C232.452 30.723 232.733 32.0099 232.724 33.4844V46H226.473V34.7116C226.482 33.6207 226.205 32.7685 225.642 32.1548C225.088 31.5412 224.317 31.2344 223.328 31.2344C222.672 31.2344 222.092 31.3793 221.589 31.669C221.095 31.9503 220.712 32.3551 220.439 32.8835C220.175 33.4119 220.038 34.0511 220.03 34.8011ZM245.761 46.3707C243.69 46.3707 241.913 45.9446 240.43 45.0923C238.956 44.2401 237.822 43.0554 237.029 41.5384C236.237 40.0128 235.841 38.2486 235.841 36.2457C235.841 34.2344 236.237 32.4702 237.029 30.9531C237.831 29.4276 238.968 28.2386 240.443 27.3864C241.926 26.5341 243.694 26.108 245.748 26.108C247.564 26.108 249.145 26.4361 250.491 27.0923C251.846 27.7486 252.903 28.6776 253.662 29.8793C254.429 31.0724 254.833 32.4744 254.876 34.0852H249.034C248.914 33.0795 248.574 32.2912 248.011 31.7202C247.457 31.1491 246.733 30.8636 245.838 30.8636C245.113 30.8636 244.478 31.0682 243.933 31.4773C243.387 31.8778 242.961 32.4744 242.654 33.267C242.356 34.0511 242.207 35.0227 242.207 36.1818C242.207 37.3409 242.356 38.321 242.654 39.1222C242.961 39.9148 243.387 40.5156 243.933 40.9247C244.478 41.3253 245.113 41.5256 245.838 41.5256C246.417 41.5256 246.929 41.402 247.372 41.1548C247.824 40.9077 248.194 40.5455 248.484 40.0682C248.774 39.5824 248.957 38.9943 249.034 38.304H254.876C254.816 39.9233 254.412 41.3381 253.662 42.5483C252.92 43.7585 251.876 44.7003 250.529 45.3736C249.191 46.0384 247.602 46.3707 245.761 46.3707ZM267.254 46.3707C265.2 46.3707 263.428 45.9659 261.936 45.1562C260.453 44.3381 259.311 43.1747 258.51 41.6662C257.717 40.1491 257.321 38.3466 257.321 36.2585C257.321 34.2301 257.722 32.4574 258.523 30.9403C259.324 29.4148 260.453 28.2301 261.911 27.3864C263.368 26.5341 265.085 26.108 267.062 26.108C268.46 26.108 269.739 26.3253 270.898 26.7599C272.057 27.1946 273.058 27.8381 273.902 28.6903C274.746 29.5426 275.402 30.5952 275.871 31.848C276.339 33.0923 276.574 34.5199 276.574 36.1307V37.6903H259.507V34.0597H270.757C270.749 33.3949 270.591 32.8026 270.284 32.2827C269.977 31.7628 269.555 31.358 269.018 31.0682C268.49 30.7699 267.881 30.6207 267.19 30.6207C266.491 30.6207 265.865 30.7784 265.311 31.0938C264.757 31.4006 264.318 31.8224 263.994 32.3594C263.67 32.8878 263.5 33.4886 263.483 34.1619V37.8565C263.483 38.6577 263.641 39.3608 263.956 39.9659C264.271 40.5625 264.719 41.027 265.298 41.3594C265.878 41.6918 266.568 41.858 267.369 41.858C267.923 41.858 268.426 41.7812 268.878 41.6278C269.33 41.4744 269.717 41.2486 270.041 40.9503C270.365 40.652 270.608 40.2855 270.77 39.8509L276.51 40.017C276.271 41.304 275.747 42.4247 274.938 43.3793C274.136 44.3253 273.084 45.0625 271.78 45.5909C270.476 46.1108 268.967 46.3707 267.254 46.3707Z" fill="#FF5286"/>
<defs>
<linearGradient id="paint0_linear_12_2" x1="40.4425" y1="7.0766" x2="26.5575" y2="59.1849" gradientUnits="userSpaceOnUse">
<stop stop-color="#FF5286"/>
<stop offset="1" stop-color="#E291FF"/>
</linearGradient>
<linearGradient id="paint1_linear_12_2" x1="40.4425" y1="7.0766" x2="26.5575" y2="59.1849" gradientUnits="userSpaceOnUse">
<stop stop-color="white"/>
<stop offset="1" stop-color="white"/>
</linearGradient>
</defs>
</svg>
