<svg width="263" height="263" viewBox="0 0 263 263" fill="none" xmlns="http://www.w3.org/2000/svg">
<mask id="path-1-inside-1_8_84" fill="white">
<path d="M249.587 131.361C256.842 131.361 262.791 137.258 262.067 144.477C259.265 172.407 247.567 198.837 228.52 219.769C206.514 243.955 176.278 259.063 143.724 262.14C111.17 265.217 78.6383 256.042 52.4894 236.409C26.3404 216.776 8.45397 188.096 2.32677 155.976C-3.80042 123.856 2.27218 90.6058 19.3574 62.7253C36.4426 34.8447 63.3121 14.3386 94.7128 5.21588C126.113 -3.90687 159.788 -0.990359 189.152 13.3952C214.568 25.846 235.173 46.1134 248.06 71.0515C251.391 77.4967 248.03 85.1691 241.285 87.8398C234.539 90.5105 226.976 87.1546 223.485 80.7948C213.118 61.9069 197.133 46.5603 177.594 36.9885C154.103 25.48 127.163 23.1468 102.043 30.445C76.9219 37.7432 55.4264 54.1481 41.7582 76.4525C28.09 98.757 23.2319 125.357 28.1337 151.053C33.0355 176.749 47.3446 199.693 68.2638 215.4C89.183 231.106 115.208 238.446 141.251 235.984C167.294 233.522 191.483 221.436 209.089 202.088C223.732 185.995 232.945 165.842 235.631 144.464C236.535 137.266 242.332 131.361 249.587 131.361Z"/>
</mask>
<path d="M249.587 131.361C256.842 131.361 262.791 137.258 262.067 144.477C259.265 172.407 247.567 198.837 228.52 219.769C206.514 243.955 176.278 259.063 143.724 262.14C111.17 265.217 78.6383 256.042 52.4894 236.409C26.3404 216.776 8.45397 188.096 2.32677 155.976C-3.80042 123.856 2.27218 90.6058 19.3574 62.7253C36.4426 34.8447 63.3121 14.3386 94.7128 5.21588C126.113 -3.90687 159.788 -0.990359 189.152 13.3952C214.568 25.846 235.173 46.1134 248.06 71.0515C251.391 77.4967 248.03 85.1691 241.285 87.8398C234.539 90.5105 226.976 87.1546 223.485 80.7948C213.118 61.9069 197.133 46.5603 177.594 36.9885C154.103 25.48 127.163 23.1468 102.043 30.445C76.9219 37.7432 55.4264 54.1481 41.7582 76.4525C28.09 98.757 23.2319 125.357 28.1337 151.053C33.0355 176.749 47.3446 199.693 68.2638 215.4C89.183 231.106 115.208 238.446 141.251 235.984C167.294 233.522 191.483 221.436 209.089 202.088C223.732 185.995 232.945 165.842 235.631 144.464C236.535 137.266 242.332 131.361 249.587 131.361Z" stroke="url(#paint0_linear_8_84)" stroke-width="60" stroke-linejoin="round" mask="url(#path-1-inside-1_8_84)"/>
<path d="M82.6136 106.818C85.0076 106.818 87.3106 107.22 89.5227 108.023C91.75 108.826 93.7348 110.106 95.4773 111.864C97.2348 113.621 98.6212 115.955 99.6364 118.864C100.667 121.758 101.189 125.311 101.205 129.523C101.205 133.477 100.758 137.008 99.8636 140.114C98.9848 143.205 97.7197 145.833 96.0682 148C94.4167 150.167 92.4242 151.818 90.0909 152.955C87.7576 154.076 85.1515 154.636 82.2727 154.636C79.1667 154.636 76.4242 154.038 74.0455 152.841C71.6667 151.629 69.75 149.985 68.2955 147.909C66.8561 145.818 65.9848 143.47 65.6818 140.864H75.3864C75.7652 142.561 76.5606 143.879 77.7727 144.818C78.9848 145.742 80.4848 146.205 82.2727 146.205C85.303 146.205 87.6061 144.886 89.1818 142.25C90.7576 139.598 91.553 135.97 91.5682 131.364H91.25C90.553 132.727 89.6136 133.902 88.4318 134.886C87.25 135.856 85.8939 136.606 84.3636 137.136C82.8485 137.667 81.2348 137.932 79.5227 137.932C76.7803 137.932 74.3333 137.288 72.1818 136C70.0303 134.712 68.3333 132.939 67.0909 130.682C65.8485 128.424 65.2273 125.848 65.2273 122.955C65.2121 119.833 65.9318 117.053 67.3864 114.614C68.8409 112.174 70.8712 110.265 73.4773 108.886C76.0985 107.492 79.1439 106.803 82.6136 106.818ZM82.6818 114.545C81.1515 114.545 79.7879 114.909 78.5909 115.636C77.4091 116.364 76.4697 117.341 75.7727 118.568C75.0909 119.795 74.7576 121.167 74.7727 122.682C74.7727 124.212 75.1061 125.591 75.7727 126.818C76.4545 128.03 77.3788 129 78.5455 129.727C79.7273 130.439 81.0758 130.795 82.5909 130.795C83.7273 130.795 84.7803 130.583 85.75 130.159C86.7197 129.735 87.5606 129.152 88.2727 128.409C89 127.652 89.5682 126.78 89.9773 125.795C90.3864 124.811 90.5909 123.765 90.5909 122.659C90.5758 121.189 90.2273 119.841 89.5455 118.614C88.8636 117.386 87.9242 116.402 86.7273 115.659C85.5303 114.917 84.1818 114.545 82.6818 114.545ZM107.318 145.818V138.068L126.75 107.455H133.432V118.182H129.477L117.227 137.568V137.932H144.841V145.818H107.318ZM129.659 154V143.455L129.841 140.023V107.455H139.068V154H129.659ZM176.875 145.273V142.818C176.875 140.955 177.269 139.242 178.057 137.682C178.86 136.106 180.019 134.848 181.534 133.909C183.064 132.955 184.928 132.477 187.125 132.477C189.352 132.477 191.223 132.947 192.739 133.886C194.269 134.826 195.42 136.083 196.193 137.659C196.981 139.22 197.375 140.939 197.375 142.818V145.273C197.375 147.136 196.981 148.856 196.193 150.432C195.405 151.992 194.246 153.242 192.716 154.182C191.186 155.136 189.322 155.614 187.125 155.614C184.898 155.614 183.027 155.136 181.511 154.182C179.996 153.242 178.845 151.992 178.057 150.432C177.269 148.856 176.875 147.136 176.875 145.273ZM183.489 142.818V145.273C183.489 146.348 183.746 147.364 184.261 148.318C184.792 149.273 185.746 149.75 187.125 149.75C188.504 149.75 189.443 149.28 189.943 148.341C190.458 147.402 190.716 146.379 190.716 145.273V142.818C190.716 141.712 190.473 140.682 189.989 139.727C189.504 138.773 188.549 138.295 187.125 138.295C185.761 138.295 184.814 138.773 184.284 139.727C183.754 140.682 183.489 141.712 183.489 142.818ZM152.989 118.636V116.182C152.989 114.303 153.39 112.583 154.193 111.023C154.996 109.447 156.155 108.189 157.67 107.25C159.201 106.311 161.049 105.841 163.216 105.841C165.458 105.841 167.337 106.311 168.852 107.25C170.367 108.189 171.519 109.447 172.307 111.023C173.095 112.583 173.489 114.303 173.489 116.182V118.636C173.489 120.515 173.087 122.235 172.284 123.795C171.496 125.356 170.337 126.606 168.807 127.545C167.292 128.47 165.428 128.932 163.216 128.932C161.004 128.932 159.133 128.462 157.602 127.523C156.087 126.568 154.936 125.318 154.148 123.773C153.375 122.212 152.989 120.5 152.989 118.636ZM159.648 116.182V118.636C159.648 119.742 159.905 120.765 160.42 121.705C160.951 122.644 161.883 123.114 163.216 123.114C164.61 123.114 165.557 122.644 166.057 121.705C166.572 120.765 166.83 119.742 166.83 118.636V116.182C166.83 115.076 166.587 114.045 166.102 113.091C165.617 112.136 164.655 111.659 163.216 111.659C161.867 111.659 160.936 112.144 160.42 113.114C159.905 114.083 159.648 115.106 159.648 116.182ZM155.989 154L187.989 107.455H193.943L161.943 154H155.989Z" fill="white"/>
<defs>
<linearGradient id="paint0_linear_8_84" x1="262.723" y1="0" x2="0" y2="262.723" gradientUnits="userSpaceOnUse">
<stop stop-color="#FF5286"/>
<stop offset="1" stop-color="#E291FF"/>
</linearGradient>
</defs>
</svg>
