<svg width="264" height="263" viewBox="0 0 264 263" fill="none" xmlns="http://www.w3.org/2000/svg">
<mask id="path-1-inside-1_8_94" fill="white">
<path d="M250.033 131.361C257.287 131.361 263.237 137.258 262.513 144.476C259.92 170.322 249.706 194.929 233.023 215.094C213.538 238.648 186.449 254.668 156.422 260.396C126.395 266.124 95.3106 261.201 68.5234 246.474C41.7362 231.748 20.9234 208.141 9.67047 179.719C-1.58249 151.297 -2.57104 119.841 6.87508 90.7685C16.3212 61.6963 35.6106 36.8286 61.4203 20.4493C87.2299 4.06999 117.944 -2.7954 148.271 1.03582C174.237 4.31602 198.527 15.2613 218.11 32.3271C223.579 37.0935 223.278 45.4643 217.99 50.4306C212.701 55.397 204.434 55.061 198.847 50.4329C183.541 37.7537 164.875 29.6144 144.978 27.1009C120.717 24.036 96.1454 29.5283 75.4977 42.6317C54.8499 55.7352 39.4184 75.6294 31.8615 98.8871C24.3046 122.145 25.0955 147.31 34.0978 170.047C43.1002 192.785 59.7504 211.671 81.1802 223.452C102.61 235.233 127.478 239.172 151.499 234.589C175.521 230.007 197.192 217.19 212.78 198.348C225.563 182.896 233.599 164.184 236.077 144.464C236.981 137.266 242.778 131.361 250.033 131.361Z"/>
</mask>
<path d="M250.033 131.361C257.287 131.361 263.237 137.258 262.513 144.476C259.92 170.322 249.706 194.929 233.023 215.094C213.538 238.648 186.449 254.668 156.422 260.396C126.395 266.124 95.3106 261.201 68.5234 246.474C41.7362 231.748 20.9234 208.141 9.67047 179.719C-1.58249 151.297 -2.57104 119.841 6.87508 90.7685C16.3212 61.6963 35.6106 36.8286 61.4203 20.4493C87.2299 4.06999 117.944 -2.7954 148.271 1.03582C174.237 4.31602 198.527 15.2613 218.11 32.3271C223.579 37.0935 223.278 45.4643 217.99 50.4306C212.701 55.397 204.434 55.061 198.847 50.4329C183.541 37.7537 164.875 29.6144 144.978 27.1009C120.717 24.036 96.1454 29.5283 75.4977 42.6317C54.8499 55.7352 39.4184 75.6294 31.8615 98.8871C24.3046 122.145 25.0955 147.31 34.0978 170.047C43.1002 192.785 59.7504 211.671 81.1802 223.452C102.61 235.233 127.478 239.172 151.499 234.589C175.521 230.007 197.192 217.19 212.78 198.348C225.563 182.896 233.599 164.184 236.077 144.464C236.981 137.266 242.778 131.361 250.033 131.361Z" stroke="url(#paint0_linear_8_94)" stroke-width="60" stroke-linejoin="round" mask="url(#path-1-inside-1_8_94)"/>
<path d="M83.5822 154.636C80.0822 154.636 76.9685 154.068 74.2413 152.932C71.5291 151.78 69.4003 150.212 67.8549 148.227C66.3094 146.242 65.5367 143.992 65.5367 141.477C65.5367 139.538 65.9761 137.758 66.8549 136.136C67.7488 134.5 68.961 133.144 70.4913 132.068C72.0216 130.977 73.7337 130.28 75.6276 129.977V129.659C73.1428 129.159 71.1276 127.955 69.5822 126.045C68.0367 124.121 67.264 121.886 67.264 119.341C67.264 116.932 67.9685 114.788 69.3776 112.909C70.7867 111.015 72.7185 109.53 75.1731 108.455C77.6428 107.364 80.4458 106.818 83.5822 106.818C86.7185 106.818 89.514 107.364 91.9685 108.455C94.4382 109.545 96.3776 111.038 97.7867 112.932C99.1958 114.811 99.9079 116.947 99.9231 119.341C99.9079 121.902 99.12 124.136 97.5594 126.045C95.9988 127.955 93.9988 129.159 91.5594 129.659V129.977C93.4231 130.28 95.1125 130.977 96.6276 132.068C98.1579 133.144 99.37 134.5 100.264 136.136C101.173 137.758 101.635 139.538 101.65 141.477C101.635 143.992 100.855 146.242 99.3094 148.227C97.764 150.212 95.6276 151.78 92.9003 152.932C90.1882 154.068 87.0822 154.636 83.5822 154.636ZM83.5822 147.409C85.1428 147.409 86.5064 147.129 87.6731 146.568C88.8397 145.992 89.7488 145.205 90.4003 144.205C91.067 143.189 91.4003 142.023 91.4003 140.705C91.4003 139.356 91.0594 138.167 90.3776 137.136C89.6958 136.091 88.7716 135.273 87.6049 134.682C86.4382 134.076 85.0973 133.773 83.5822 133.773C82.0822 133.773 80.7413 134.076 79.5594 134.682C78.3776 135.273 77.4458 136.091 76.764 137.136C76.0973 138.167 75.764 139.356 75.764 140.705C75.764 142.023 76.0897 143.189 76.7413 144.205C77.3928 145.205 78.3094 145.992 79.4913 146.568C80.6731 147.129 82.0367 147.409 83.5822 147.409ZM83.5822 126.614C84.8852 126.614 86.0443 126.348 87.0594 125.818C88.0746 125.288 88.87 124.553 89.4458 123.614C90.0216 122.674 90.3094 121.591 90.3094 120.364C90.3094 119.152 90.0216 118.091 89.4458 117.182C88.87 116.258 88.0822 115.538 87.0822 115.023C86.0822 114.492 84.9155 114.227 83.5822 114.227C82.264 114.227 81.0973 114.492 80.0822 115.023C79.067 115.538 78.2716 116.258 77.6958 117.182C77.1352 118.091 76.8549 119.152 76.8549 120.364C76.8549 121.591 77.1428 122.674 77.7185 123.614C78.2943 124.553 79.0897 125.288 80.1049 125.818C81.12 126.348 82.2791 126.614 83.5822 126.614ZM125.895 154.636C122.395 154.636 119.281 154.068 116.554 152.932C113.842 151.78 111.713 150.212 110.167 148.227C108.622 146.242 107.849 143.992 107.849 141.477C107.849 139.538 108.289 137.758 109.167 136.136C110.061 134.5 111.273 133.144 112.804 132.068C114.334 130.977 116.046 130.28 117.94 129.977V129.659C115.455 129.159 113.44 127.955 111.895 126.045C110.349 124.121 109.576 121.886 109.576 119.341C109.576 116.932 110.281 114.788 111.69 112.909C113.099 111.015 115.031 109.53 117.486 108.455C119.955 107.364 122.758 106.818 125.895 106.818C129.031 106.818 131.826 107.364 134.281 108.455C136.751 109.545 138.69 111.038 140.099 112.932C141.508 114.811 142.22 116.947 142.236 119.341C142.22 121.902 141.433 124.136 139.872 126.045C138.311 127.955 136.311 129.159 133.872 129.659V129.977C135.736 130.28 137.425 130.977 138.94 132.068C140.47 133.144 141.683 134.5 142.576 136.136C143.486 137.758 143.948 139.538 143.963 141.477C143.948 143.992 143.167 146.242 141.622 148.227C140.076 150.212 137.94 151.78 135.213 152.932C132.501 154.068 129.395 154.636 125.895 154.636ZM125.895 147.409C127.455 147.409 128.819 147.129 129.986 146.568C131.152 145.992 132.061 145.205 132.713 144.205C133.38 143.189 133.713 142.023 133.713 140.705C133.713 139.356 133.372 138.167 132.69 137.136C132.008 136.091 131.084 135.273 129.917 134.682C128.751 134.076 127.41 133.773 125.895 133.773C124.395 133.773 123.054 134.076 121.872 134.682C120.69 135.273 119.758 136.091 119.076 137.136C118.41 138.167 118.076 139.356 118.076 140.705C118.076 142.023 118.402 143.189 119.054 144.205C119.705 145.205 120.622 145.992 121.804 146.568C122.986 147.129 124.349 147.409 125.895 147.409ZM125.895 126.614C127.198 126.614 128.357 126.348 129.372 125.818C130.387 125.288 131.183 124.553 131.758 123.614C132.334 122.674 132.622 121.591 132.622 120.364C132.622 119.152 132.334 118.091 131.758 117.182C131.183 116.258 130.395 115.538 129.395 115.023C128.395 114.492 127.228 114.227 125.895 114.227C124.576 114.227 123.41 114.492 122.395 115.023C121.38 115.538 120.584 116.258 120.008 117.182C119.448 118.091 119.167 119.152 119.167 120.364C119.167 121.591 119.455 122.674 120.031 123.614C120.607 124.553 121.402 125.288 122.417 125.818C123.433 126.348 124.592 126.614 125.895 126.614ZM176.321 145.273V142.818C176.321 140.955 176.715 139.242 177.503 137.682C178.306 136.106 179.465 134.848 180.98 133.909C182.51 132.955 184.374 132.477 186.571 132.477C188.798 132.477 190.669 132.947 192.184 133.886C193.715 134.826 194.866 136.083 195.639 137.659C196.427 139.22 196.821 140.939 196.821 142.818V145.273C196.821 147.136 196.427 148.856 195.639 150.432C194.851 151.992 193.692 153.242 192.162 154.182C190.631 155.136 188.768 155.614 186.571 155.614C184.344 155.614 182.472 155.136 180.957 154.182C179.442 153.242 178.29 151.992 177.503 150.432C176.715 148.856 176.321 147.136 176.321 145.273ZM182.934 142.818V145.273C182.934 146.348 183.192 147.364 183.707 148.318C184.237 149.273 185.192 149.75 186.571 149.75C187.95 149.75 188.889 149.28 189.389 148.341C189.904 147.402 190.162 146.379 190.162 145.273V142.818C190.162 141.712 189.919 140.682 189.434 139.727C188.95 138.773 187.995 138.295 186.571 138.295C185.207 138.295 184.26 138.773 183.73 139.727C183.2 140.682 182.934 141.712 182.934 142.818ZM152.434 118.636V116.182C152.434 114.303 152.836 112.583 153.639 111.023C154.442 109.447 155.601 108.189 157.116 107.25C158.647 106.311 160.495 105.841 162.662 105.841C164.904 105.841 166.783 106.311 168.298 107.25C169.813 108.189 170.965 109.447 171.753 111.023C172.54 112.583 172.934 114.303 172.934 116.182V118.636C172.934 120.515 172.533 122.235 171.73 123.795C170.942 125.356 169.783 126.606 168.253 127.545C166.737 128.47 164.874 128.932 162.662 128.932C160.45 128.932 158.578 128.462 157.048 127.523C155.533 126.568 154.381 125.318 153.594 123.773C152.821 122.212 152.434 120.5 152.434 118.636ZM159.094 116.182V118.636C159.094 119.742 159.351 120.765 159.866 121.705C160.397 122.644 161.328 123.114 162.662 123.114C164.056 123.114 165.003 122.644 165.503 121.705C166.018 120.765 166.275 119.742 166.275 118.636V116.182C166.275 115.076 166.033 114.045 165.548 113.091C165.063 112.136 164.101 111.659 162.662 111.659C161.313 111.659 160.381 112.144 159.866 113.114C159.351 114.083 159.094 115.106 159.094 116.182ZM155.434 154L187.434 107.455H193.389L161.389 154H155.434Z" fill="white"/>
<defs>
<linearGradient id="paint0_linear_8_94" x1="263.169" y1="0" x2="0.445801" y2="262.723" gradientUnits="userSpaceOnUse">
<stop stop-color="#FF5286"/>
<stop offset="1" stop-color="#E291FF"/>
</linearGradient>
</defs>
</svg>
