<svg width="263" height="263" viewBox="0 0 263 263" fill="none" xmlns="http://www.w3.org/2000/svg">
<mask id="path-1-inside-1_8_100" fill="white">
<path d="M249.587 131.361C256.842 131.361 262.791 137.257 262.067 144.476C260.443 160.659 255.824 176.439 248.405 190.998C238.994 209.469 225.345 225.45 208.574 237.635C191.803 249.82 172.386 257.863 151.911 261.106C131.436 264.349 110.484 262.7 90.7685 256.294C71.0529 249.888 53.1333 238.906 38.4749 224.248C23.8164 209.59 12.8353 191.67 6.42928 171.954C0.0233002 152.239 -1.62564 131.287 1.61728 110.812C4.17346 94.6729 9.71179 79.1913 17.9102 65.1447C21.5673 58.8789 29.8458 57.606 35.7152 61.8703C41.5845 66.1347 42.8039 74.3182 39.3046 80.6734C33.4559 91.2956 29.4734 102.88 27.5661 114.922C24.9718 131.302 26.2909 148.063 31.4157 163.836C36.5405 179.608 45.3254 193.944 57.0522 205.671C68.779 217.397 83.1146 226.182 98.8871 231.307C114.66 236.432 131.421 237.751 147.801 235.157C164.181 232.562 179.714 226.128 193.131 216.38C206.548 206.632 217.468 193.848 224.997 179.071C230.532 168.208 234.119 156.495 235.631 144.464C236.535 137.265 242.332 131.361 249.587 131.361Z"/>
</mask>
<path d="M249.587 131.361C256.842 131.361 262.791 137.257 262.067 144.476C260.443 160.659 255.824 176.439 248.405 190.998C238.994 209.469 225.345 225.45 208.574 237.635C191.803 249.82 172.386 257.863 151.911 261.106C131.436 264.349 110.484 262.7 90.7685 256.294C71.0529 249.888 53.1333 238.906 38.4749 224.248C23.8164 209.59 12.8353 191.67 6.42928 171.954C0.0233002 152.239 -1.62564 131.287 1.61728 110.812C4.17346 94.6729 9.71179 79.1913 17.9102 65.1447C21.5673 58.8789 29.8458 57.606 35.7152 61.8703C41.5845 66.1347 42.8039 74.3182 39.3046 80.6734C33.4559 91.2956 29.4734 102.88 27.5661 114.922C24.9718 131.302 26.2909 148.063 31.4157 163.836C36.5405 179.608 45.3254 193.944 57.0522 205.671C68.779 217.397 83.1146 226.182 98.8871 231.307C114.66 236.432 131.421 237.751 147.801 235.157C164.181 232.562 179.714 226.128 193.131 216.38C206.548 206.632 217.468 193.848 224.997 179.071C230.532 168.208 234.119 156.495 235.631 144.464C236.535 137.265 242.332 131.361 249.587 131.361Z" stroke="url(#paint0_linear_8_100)" stroke-width="60" stroke-linejoin="round" mask="url(#path-1-inside-1_8_100)"/>
<path d="M83.6364 154.636C81.2424 154.621 78.9318 154.22 76.7045 153.432C74.4924 152.644 72.5076 151.364 70.75 149.591C68.9924 147.818 67.5985 145.47 66.5682 142.545C65.553 139.621 65.0455 136.03 65.0455 131.773C65.0606 127.864 65.5076 124.371 66.3864 121.295C67.2803 118.205 68.553 115.583 70.2045 113.432C71.8712 111.28 73.8636 109.644 76.1818 108.523C78.5 107.386 81.0985 106.818 83.9773 106.818C87.0833 106.818 89.8258 107.424 92.2045 108.636C94.5833 109.833 96.4924 111.462 97.9318 113.523C99.3864 115.583 100.265 117.894 100.568 120.455H90.8636C90.4848 118.833 89.6894 117.561 88.4773 116.636C87.2652 115.712 85.7652 115.25 83.9773 115.25C80.947 115.25 78.6439 116.568 77.0682 119.205C75.5076 121.841 74.7121 125.424 74.6818 129.955H75C75.697 128.576 76.6364 127.402 77.8182 126.432C79.0152 125.447 80.3712 124.697 81.8864 124.182C83.4167 123.652 85.0303 123.386 86.7273 123.386C89.4848 123.386 91.9394 124.038 94.0909 125.341C96.2424 126.629 97.9394 128.402 99.1818 130.659C100.424 132.917 101.045 135.5 101.045 138.409C101.045 141.561 100.311 144.364 98.8409 146.818C97.3864 149.273 95.3485 151.197 92.7273 152.591C90.1212 153.97 87.0909 154.652 83.6364 154.636ZM83.5909 146.909C85.1061 146.909 86.4621 146.545 87.6591 145.818C88.8561 145.091 89.7955 144.106 90.4773 142.864C91.1591 141.621 91.5 140.227 91.5 138.682C91.5 137.136 91.1591 135.75 90.4773 134.523C89.8106 133.295 88.8864 132.318 87.7045 131.591C86.5227 130.864 85.1742 130.5 83.6591 130.5C82.5227 130.5 81.4697 130.712 80.5 131.136C79.5455 131.561 78.7045 132.152 77.9773 132.909C77.2652 133.667 76.7045 134.545 76.2955 135.545C75.8864 136.53 75.6818 137.583 75.6818 138.705C75.6818 140.205 76.0227 141.576 76.7045 142.818C77.4015 144.061 78.3409 145.053 79.5227 145.795C80.7197 146.538 82.0758 146.909 83.5909 146.909ZM126.273 155.023C122.364 155.008 119 154.045 116.182 152.136C113.379 150.227 111.22 147.462 109.705 143.841C108.205 140.22 107.462 135.864 107.477 130.773C107.477 125.697 108.227 121.371 109.727 117.795C111.242 114.22 113.402 111.5 116.205 109.636C119.023 107.758 122.379 106.818 126.273 106.818C130.167 106.818 133.515 107.758 136.318 109.636C139.136 111.515 141.303 114.242 142.818 117.818C144.333 121.379 145.083 125.697 145.068 130.773C145.068 135.879 144.311 140.242 142.795 143.864C141.295 147.485 139.144 150.25 136.341 152.159C133.538 154.068 130.182 155.023 126.273 155.023ZM126.273 146.864C128.939 146.864 131.068 145.523 132.659 142.841C134.25 140.159 135.038 136.136 135.023 130.773C135.023 127.242 134.659 124.303 133.932 121.955C133.22 119.606 132.205 117.841 130.886 116.659C129.583 115.477 128.045 114.886 126.273 114.886C123.621 114.886 121.5 116.212 119.909 118.864C118.318 121.515 117.515 125.485 117.5 130.773C117.5 134.348 117.856 137.333 118.568 139.727C119.295 142.106 120.318 143.894 121.636 145.091C122.955 146.273 124.5 146.864 126.273 146.864ZM177.562 145.273V142.818C177.562 140.955 177.956 139.242 178.744 137.682C179.547 136.106 180.706 134.848 182.222 133.909C183.752 132.955 185.616 132.477 187.812 132.477C190.04 132.477 191.911 132.947 193.426 133.886C194.956 134.826 196.108 136.083 196.881 137.659C197.669 139.22 198.062 140.939 198.062 142.818V145.273C198.062 147.136 197.669 148.856 196.881 150.432C196.093 151.992 194.934 153.242 193.403 154.182C191.873 155.136 190.009 155.614 187.812 155.614C185.585 155.614 183.714 155.136 182.199 154.182C180.684 153.242 179.532 151.992 178.744 150.432C177.956 148.856 177.562 147.136 177.562 145.273ZM184.176 142.818V145.273C184.176 146.348 184.434 147.364 184.949 148.318C185.479 149.273 186.434 149.75 187.812 149.75C189.191 149.75 190.131 149.28 190.631 148.341C191.146 147.402 191.403 146.379 191.403 145.273V142.818C191.403 141.712 191.161 140.682 190.676 139.727C190.191 138.773 189.237 138.295 187.812 138.295C186.449 138.295 185.502 138.773 184.972 139.727C184.441 140.682 184.176 141.712 184.176 142.818ZM153.676 118.636V116.182C153.676 114.303 154.078 112.583 154.881 111.023C155.684 109.447 156.843 108.189 158.358 107.25C159.888 106.311 161.737 105.841 163.903 105.841C166.146 105.841 168.025 106.311 169.54 107.25C171.055 108.189 172.206 109.447 172.994 111.023C173.782 112.583 174.176 114.303 174.176 116.182V118.636C174.176 120.515 173.775 122.235 172.972 123.795C172.184 125.356 171.025 126.606 169.494 127.545C167.979 128.47 166.116 128.932 163.903 128.932C161.691 128.932 159.82 128.462 158.29 127.523C156.775 126.568 155.623 125.318 154.835 123.773C154.063 122.212 153.676 120.5 153.676 118.636ZM160.335 116.182V118.636C160.335 119.742 160.593 120.765 161.108 121.705C161.638 122.644 162.57 123.114 163.903 123.114C165.297 123.114 166.244 122.644 166.744 121.705C167.259 120.765 167.517 119.742 167.517 118.636V116.182C167.517 115.076 167.275 114.045 166.79 113.091C166.305 112.136 165.343 111.659 163.903 111.659C162.555 111.659 161.623 112.144 161.108 113.114C160.593 114.083 160.335 115.106 160.335 116.182ZM156.676 154L188.676 107.455H194.631L162.631 154H156.676Z" fill="white"/>
<defs>
<linearGradient id="paint0_linear_8_100" x1="262.723" y1="0" x2="0" y2="262.723" gradientUnits="userSpaceOnUse">
<stop stop-color="#FF5286"/>
<stop offset="1" stop-color="#E291FF"/>
</linearGradient>
</defs>
</svg>
