<svg width="264" height="263" viewBox="0 0 264 263" fill="none" xmlns="http://www.w3.org/2000/svg">
<mask id="path-1-inside-1_8_105" fill="white">
<path d="M250.31 131.361C257.565 131.361 263.514 137.257 262.79 144.476C261.028 162.034 255.741 179.104 247.197 194.645C236.538 214.035 221.153 230.418 202.471 242.274C183.789 254.13 162.415 261.074 140.333 262.464C122.632 263.577 104.936 261.093 88.2991 255.211C81.4591 252.793 78.6575 244.899 81.7465 238.335C84.8354 231.77 92.6455 229.039 99.5438 231.286C112.123 235.382 125.401 237.079 138.683 236.243C156.349 235.132 173.448 229.576 188.394 220.091C203.339 210.606 215.647 197.5 224.175 181.989C230.586 170.327 234.704 157.59 236.354 144.464C237.258 137.265 243.055 131.361 250.31 131.361Z"/>
</mask>
<path d="M250.31 131.361C257.565 131.361 263.514 137.257 262.79 144.476C261.028 162.034 255.741 179.104 247.197 194.645C236.538 214.035 221.153 230.418 202.471 242.274C183.789 254.13 162.415 261.074 140.333 262.464C122.632 263.577 104.936 261.093 88.2991 255.211C81.4591 252.793 78.6575 244.899 81.7465 238.335C84.8354 231.77 92.6455 229.039 99.5438 231.286C112.123 235.382 125.401 237.079 138.683 236.243C156.349 235.132 173.448 229.576 188.394 220.091C203.339 210.606 215.647 197.5 224.175 181.989C230.586 170.327 234.704 157.59 236.354 144.464C237.258 137.265 243.055 131.361 250.31 131.361Z" stroke="url(#paint0_linear_8_105)" stroke-width="60" stroke-linejoin="round" mask="url(#path-1-inside-1_8_105)"/>
<path d="M83.7002 154.636C80.3062 154.636 77.2835 154.053 74.632 152.886C71.9956 151.705 69.9123 150.083 68.382 148.023C66.8668 145.947 66.0865 143.553 66.0411 140.841H75.9502C76.0108 141.977 76.382 142.977 77.0638 143.841C77.7608 144.689 78.685 145.348 79.8365 145.818C80.9881 146.288 82.2835 146.523 83.7229 146.523C85.2229 146.523 86.5487 146.258 87.7002 145.727C88.8517 145.197 89.7532 144.462 90.4047 143.523C91.0562 142.583 91.382 141.5 91.382 140.273C91.382 139.03 91.0335 137.932 90.3365 136.977C89.6547 136.008 88.6699 135.25 87.382 134.705C86.1093 134.159 84.5941 133.886 82.8365 133.886H78.4956V126.659H82.8365C84.3214 126.659 85.632 126.402 86.7684 125.886C87.9199 125.371 88.8138 124.659 89.4502 123.75C90.0865 122.826 90.4047 121.75 90.4047 120.523C90.4047 119.356 90.1244 118.333 89.5638 117.455C89.0184 116.561 88.2456 115.864 87.2456 115.364C86.2608 114.864 85.1093 114.614 83.7911 114.614C82.4577 114.614 81.2381 114.856 80.132 115.341C79.0259 115.811 78.1396 116.485 77.4729 117.364C76.8062 118.242 76.4502 119.273 76.4047 120.455H66.9729C67.0184 117.773 67.7835 115.409 69.2684 113.364C70.7532 111.318 72.7532 109.72 75.2684 108.568C77.7987 107.402 80.6547 106.818 83.8365 106.818C87.0487 106.818 89.8593 107.402 92.2684 108.568C94.6774 109.735 96.5487 111.311 97.882 113.295C99.2305 115.265 99.8971 117.477 99.882 119.932C99.8971 122.538 99.0865 124.712 97.4502 126.455C95.829 128.197 93.7153 129.303 91.1093 129.773V130.136C94.5335 130.576 97.1396 131.765 98.9274 133.705C100.73 135.629 101.624 138.038 101.609 140.932C101.624 143.583 100.859 145.939 99.3138 148C97.7835 150.061 95.6699 151.682 92.9729 152.864C90.2759 154.045 87.185 154.636 83.7002 154.636ZM108.683 154V146.909L125.251 131.568C126.66 130.205 127.842 128.977 128.797 127.886C129.766 126.795 130.501 125.727 131.001 124.682C131.501 123.621 131.751 122.477 131.751 121.25C131.751 119.886 131.441 118.712 130.819 117.727C130.198 116.727 129.35 115.962 128.274 115.432C127.198 114.886 125.979 114.614 124.615 114.614C123.191 114.614 121.948 114.902 120.888 115.477C119.827 116.053 119.009 116.879 118.433 117.955C117.857 119.03 117.569 120.311 117.569 121.795H108.229C108.229 118.75 108.918 116.106 110.297 113.864C111.676 111.621 113.607 109.886 116.092 108.659C118.577 107.432 121.441 106.818 124.683 106.818C128.016 106.818 130.918 107.409 133.388 108.591C135.873 109.758 137.804 111.379 139.183 113.455C140.562 115.53 141.251 117.909 141.251 120.591C141.251 122.348 140.903 124.083 140.206 125.795C139.524 127.508 138.304 129.409 136.547 131.5C134.789 133.576 132.312 136.068 129.115 138.977L122.319 145.636V145.955H141.865V154H108.683ZM174.473 145.273V142.818C174.473 140.955 174.867 139.242 175.655 137.682C176.458 136.106 177.617 134.848 179.132 133.909C180.662 132.955 182.526 132.477 184.723 132.477C186.95 132.477 188.821 132.947 190.337 133.886C191.867 134.826 193.018 136.083 193.791 137.659C194.579 139.22 194.973 140.939 194.973 142.818V145.273C194.973 147.136 194.579 148.856 193.791 150.432C193.003 151.992 191.844 153.242 190.314 154.182C188.784 155.136 186.92 155.614 184.723 155.614C182.496 155.614 180.624 155.136 179.109 154.182C177.594 153.242 176.443 151.992 175.655 150.432C174.867 148.856 174.473 147.136 174.473 145.273ZM181.087 142.818V145.273C181.087 146.348 181.344 147.364 181.859 148.318C182.39 149.273 183.344 149.75 184.723 149.75C186.102 149.75 187.041 149.28 187.541 148.341C188.056 147.402 188.314 146.379 188.314 145.273V142.818C188.314 141.712 188.071 140.682 187.587 139.727C187.102 138.773 186.147 138.295 184.723 138.295C183.359 138.295 182.412 138.773 181.882 139.727C181.352 140.682 181.087 141.712 181.087 142.818ZM150.587 118.636V116.182C150.587 114.303 150.988 112.583 151.791 111.023C152.594 109.447 153.753 108.189 155.268 107.25C156.799 106.311 158.647 105.841 160.814 105.841C163.056 105.841 164.935 106.311 166.45 107.25C167.965 108.189 169.117 109.447 169.905 111.023C170.693 112.583 171.087 114.303 171.087 116.182V118.636C171.087 120.515 170.685 122.235 169.882 123.795C169.094 125.356 167.935 126.606 166.405 127.545C164.89 128.47 163.026 128.932 160.814 128.932C158.602 128.932 156.73 128.462 155.2 127.523C153.685 126.568 152.534 125.318 151.746 123.773C150.973 122.212 150.587 120.5 150.587 118.636ZM157.246 116.182V118.636C157.246 119.742 157.503 120.765 158.018 121.705C158.549 122.644 159.48 123.114 160.814 123.114C162.208 123.114 163.155 122.644 163.655 121.705C164.17 120.765 164.427 119.742 164.427 118.636V116.182C164.427 115.076 164.185 114.045 163.7 113.091C163.215 112.136 162.253 111.659 160.814 111.659C159.465 111.659 158.534 112.144 158.018 113.114C157.503 114.083 157.246 115.106 157.246 116.182ZM153.587 154L185.587 107.455H191.541L159.541 154H153.587Z" fill="white"/>
<defs>
<linearGradient id="paint0_linear_8_105" x1="263.446" y1="0" x2="0.7229" y2="262.723" gradientUnits="userSpaceOnUse">
<stop stop-color="#FF5286"/>
<stop offset="1" stop-color="#E291FF"/>
</linearGradient>
</defs>
</svg>
